# Blender 5.1.2
# www.blender.org
mtllib arrow_cone.mtl
o Cone
v -0.100000 0.000000 -0.100000
v -0.100000 -0.070711 -0.070711
v -0.100000 -0.100000 0.000000
v -0.100000 -0.070711 0.070711
v -0.100000 0.000000 0.100000
v -0.100000 0.070711 0.070711
v -0.100000 0.100000 0.000000
v -0.100000 0.070711 -0.070711
v 0.100000 -0.000000 0.000000
vn -0.4502 -0.0000 -0.8929
vn -0.4502 -0.6314 -0.6314
vn -0.4502 -0.8929 -0.0000
vn -0.4502 -0.6314 0.6314
vn -0.4502 -0.0000 0.8929
vn -0.4502 0.6314 0.6314
vn -0.4502 0.8929 -0.0000
vn -0.4502 0.6314 -0.6314
vn 1.0000 -0.0000 -0.0000
vt 0.500000 1.000000
vt 0.500000 0.500000
vt 0.853553 0.853553
vt 1.000000 0.500000
vt 0.853553 0.146447
vt 0.500000 0.000000
vt 0.146447 0.146447
vt 0.000000 0.500000
vt 0.146447 0.853553
s 1
f 1/1/1 9/2/9 2/3/2
f 2/3/2 9/2/9 3/4/3
f 3/4/3 9/2/9 4/5/4
f 4/5/4 9/2/9 5/6/5
f 5/6/5 9/2/9 6/7/6
f 6/7/6 9/2/9 7/8/7
f 7/8/7 9/2/9 8/9/8
f 8/9/8 9/2/9 1/1/1
f 2/3/2 3/4/3 4/5/4 5/6/5 6/7/6 7/8/7 8/9/8 1/1/1
