# Blender 5.1.2
# www.blender.org
mtllib arrow_cylinder.mtl
o Cylinder
v 0.000000 0.000000 -0.050000
v 1.000000 -0.000000 -0.050000
v -0.000000 -0.035355 -0.035355
v 1.000000 -0.035355 -0.035355
v -0.000000 -0.050000 0.000000
v 1.000000 -0.050000 0.000000
v -0.000000 -0.035355 0.035355
v 1.000000 -0.035355 0.035355
v 0.000000 0.000000 0.050000
v 1.000000 -0.000000 0.050000
v 0.000000 0.035355 0.035355
v 1.000000 0.035355 0.035355
v 0.000000 0.050000 0.000000
v 1.000000 0.050000 0.000000
v 0.000000 0.035355 -0.035355
v 1.000000 0.035355 -0.035355
vn -0.6303 -0.0000 -0.7764
vn 0.6303 -0.0000 -0.7764
vn -0.6303 -0.5490 -0.5490
vn 0.6303 -0.5490 -0.5490
vn -0.6303 -0.7764 -0.0000
vn 0.6303 -0.7764 -0.0000
vn -0.6303 -0.5490 0.5490
vn 0.6303 -0.5490 0.5490
vn -0.6303 -0.0000 0.7764
vn 0.6303 -0.0000 0.7764
vn -0.6303 0.5490 0.5490
vn 0.6303 0.5490 0.5490
vn -0.6303 0.7764 -0.0000
vn 0.6303 0.7764 -0.0000
vn -0.6303 0.5490 -0.5490
vn 0.6303 0.5490 -0.5490
vt 1.000000 0.500000
vt 1.000000 1.000000
vt 0.875000 1.000000
vt 0.875000 0.500000
vt 0.750000 1.000000
vt 0.750000 0.500000
vt 0.625000 1.000000
vt 0.625000 0.500000
vt 0.500000 1.000000
vt 0.500000 0.500000
vt 0.375000 1.000000
vt 0.375000 0.500000
vt 0.250000 1.000000
vt 0.250000 0.500000
vt 0.419706 0.419706
vt 0.250000 0.490000
vt 0.080294 0.419706
vt 0.010000 0.250000
vt 0.080294 0.080294
vt 0.250000 0.010000
vt 0.419706 0.080294
vt 0.490000 0.250000
vt 0.125000 1.000000
vt 0.125000 0.500000
vt 0.000000 1.000000
vt 0.000000 0.500000
vt 0.750000 0.490000
vt 0.919706 0.419706
vt 0.990000 0.250000
vt 0.919706 0.080294
vt 0.750000 0.010000
vt 0.580294 0.080294
vt 0.510000 0.250000
vt 0.580294 0.419706
s 1
f 1/1/1 2/2/2 4/3/4 3/4/3
f 3/4/3 4/3/4 6/5/6 5/6/5
f 5/6/5 6/5/6 8/7/8 7/8/7
f 7/8/7 8/7/8 10/9/10 9/10/9
f 9/10/9 10/9/10 12/11/12 11/12/11
f 11/12/11 12/11/12 14/13/14 13/14/13
f 4/15/4 2/16/2 16/17/16 14/18/14 12/19/12 10/20/10 8/21/8 6/22/6
f 13/14/13 14/13/14 16/23/16 15/24/15
f 15/24/15 16/23/16 2/25/2 1/26/1
f 1/27/1 3/28/3 5/29/5 7/30/7 9/31/9 11/32/11 13/33/13 15/34/15
